<?xml version="1.0" standalone="no"?>
<!DOCTYPE svg PUBLIC "-//W3C//DTD SVG 20010904//EN"
 "http://www.w3.org/TR/2001/REC-SVG-20010904/DTD/svg10.dtd">
<svg version="1.0" xmlns="http://www.w3.org/2000/svg"
 width="760.000000pt" height="760.000000pt" viewBox="0 0 760.000000 760.000000"
 preserveAspectRatio="xMidYMid meet">
<metadata>
Created by potrace 1.14, written by Peter Selinger 2001-2017
</metadata>
<g transform="translate(0.000000,760.000000) scale(0.100000,-0.100000)"
fill="#000000" stroke="none">
<path d="M2497 7594 c-2 -2 -21 -6 -43 -8 -48 -5 -161 -31 -229 -52 -62 -20
-259 -113 -263 -125 -2 -5 -8 -9 -13 -9 -25 0 -158 -107 -254 -205 -113 -115
-192 -234 -263 -395 -23 -52 -73 -210 -66 -210 3 0 0 -9 -6 -21 -7 -11 -14
-18 -17 -15 -8 8 -92 -52 -139 -99 -143 -143 -174 -375 -76 -560 15 -27 54
-76 86 -108 192 -187 487 -182 676 12 45 46 96 125 106 164 1 4 2 8 4 10 2 3
9 35 17 82 29 180 -56 368 -210 470 -23 15 -24 19 -15 52 40 144 166 323 295
420 21 15 40 31 43 34 12 15 171 88 232 107 222 69 479 38 683 -81 30 -18 80
-47 112 -66 32 -19 76 -46 98 -60 22 -14 42 -26 45 -26 3 0 31 -17 63 -38 31
-20 59 -37 62 -37 8 0 110 -65 113 -72 2 -5 8 -8 13 -8 6 0 35 -16 65 -35 30
-19 56 -35 59 -35 2 0 23 -12 47 -27 24 -16 52 -33 63 -40 47 -28 191 -115
205 -123 99 -62 208 -127 220 -133 8 -4 29 -15 45 -26 48 -29 817 -492 850
-511 96 -55 791 -475 795 -479 3 -4 18 -13 33 -20 24 -13 84 -73 122 -123 29
-36 69 -166 67 -213 -1 -5 -2 -26 -2 -45 -2 -52 -26 -131 -56 -183 -38 -69
-99 -123 -217 -193 l-106 -62 -12 36 c-17 56 -48 120 -59 127 -6 4 -8 10 -5
15 6 10 -140 160 -177 180 -15 8 -80 46 -145 84 -65 37 -138 80 -163 94 -25
13 -85 48 -135 77 -81 48 -132 77 -190 109 -11 6 -38 23 -60 37 -22 13 -51 30
-65 37 -14 6 -32 16 -40 22 -40 27 -293 170 -301 170 -5 0 -9 3 -9 8 0 4 -10
12 -23 18 -33 15 -111 58 -117 64 -3 3 -16 11 -29 18 -13 8 -39 22 -57 32 -18
11 -51 30 -73 44 -22 15 -43 26 -45 26 -2 0 -71 39 -153 86 -81 48 -164 96
-183 106 -160 91 -168 98 -166 132 3 31 -6 106 -17 154 -12 49 -73 146 -124
196 -54 55 -144 106 -220 126 -146 37 -323 -10 -439 -117 -45 -41 -114 -143
-114 -167 0 -8 -4 -17 -9 -20 -24 -15 -33 -176 -14 -259 61 -268 347 -430 608
-344 33 11 64 24 70 28 19 18 48 6 251 -112 115 -67 234 -135 264 -152 30 -16
62 -36 71 -43 8 -8 19 -14 23 -14 4 0 71 -37 149 -83 78 -46 149 -86 157 -90
8 -4 29 -15 45 -26 17 -10 47 -28 68 -40 85 -49 104 -60 152 -88 28 -16 57
-32 65 -36 8 -4 29 -15 45 -26 17 -10 46 -27 65 -38 19 -11 94 -54 165 -95 72
-42 146 -85 165 -96 38 -21 144 -82 200 -115 19 -11 52 -30 74 -41 39 -21 87
-75 94 -105 10 -44 3 -110 -14 -137 -25 -39 -32 -44 -159 -118 -151 -89 -178
-104 -196 -115 -16 -10 -19 -8 -364 191 -314 181 -396 228 -401 228 -3 0 -10
5 -17 11 -10 9 -310 183 -457 266 -25 14 -160 92 -300 173 -140 81 -271 156
-290 167 -19 11 -107 62 -195 113 -88 51 -185 106 -215 123 -30 16 -66 37 -80
47 -14 9 -53 31 -88 49 -156 81 -334 20 -399 -137 l-22 -53 0 -1427 c0 -1389
1 -1428 19 -1477 51 -133 205 -209 339 -168 24 7 119 56 210 109 91 53 191
110 221 127 30 16 66 38 80 47 14 9 60 37 103 61 43 24 86 49 96 54 9 6 64 37
121 70 58 33 113 64 122 70 41 24 315 182 347 200 20 11 56 32 81 46 25 15 61
36 80 47 242 138 652 376 676 392 16 11 36 20 42 20 7 0 12 4 12 8 0 4 12 13
28 19 27 12 72 38 165 94 26 16 51 30 56 32 12 3 101 -37 101 -45 0 -5 4 -8 9
-8 10 0 192 -104 227 -130 56 -41 81 -116 62 -187 -10 -38 -61 -91 -114 -118
-22 -11 -55 -29 -74 -41 -19 -13 -54 -33 -76 -46 -23 -13 -123 -70 -223 -128
-99 -58 -189 -109 -199 -115 -9 -5 -71 -41 -137 -79 -66 -39 -138 -80 -160
-92 -22 -12 -102 -58 -178 -103 -76 -44 -142 -81 -147 -81 -6 0 -10 -4 -10 -9
0 -5 -9 -12 -19 -16 -11 -3 -119 -64 -241 -135 -122 -72 -224 -130 -226 -130
-2 0 -27 -15 -56 -33 -29 -19 -78 -47 -109 -64 -52 -28 -57 -29 -83 -16 -16 8
-52 23 -81 33 -68 24 -217 21 -290 -5 -71 -25 -164 -89 -205 -141 -19 -24 -39
-50 -45 -57 -42 -52 -74 -180 -69 -275 12 -248 222 -444 474 -443 258 1 464
201 474 460 l2 64 190 110 c104 60 214 123 244 140 30 17 57 33 60 36 3 4 24
15 47 26 24 11 43 23 43 28 0 4 4 7 9 7 8 0 40 18 346 195 94 54 184 106 200
114 17 9 32 19 33 24 2 4 8 7 13 7 5 0 38 18 74 40 36 22 67 40 68 40 2 0 150
85 330 189 214 124 343 205 376 236 64 61 125 154 148 227 10 32 23 58 29 58
5 0 31 -14 57 -30 26 -17 50 -30 53 -30 3 0 28 -15 57 -33 57 -36 137 -115
137 -134 0 -6 4 -13 8 -15 4 -1 19 -28 32 -58 35 -83 37 -226 3 -310 -3 -8 -7
-20 -8 -27 -5 -21 -83 -119 -117 -147 -18 -14 -38 -31 -45 -36 -7 -6 -14 -10
-16 -10 -5 0 -169 -97 -182 -108 -5 -4 -17 -11 -25 -15 -8 -4 -33 -18 -55 -32
-22 -14 -57 -35 -79 -48 -21 -12 -46 -27 -55 -32 -15 -9 -93 -57 -132 -80 -51
-30 -197 -117 -214 -128 -55 -34 -102 -63 -120 -73 -28 -15 -257 -152 -275
-164 -8 -6 -30 -18 -47 -27 -18 -9 -33 -20 -33 -25 0 -4 -5 -8 -10 -8 -6 0
-47 -23 -91 -50 -44 -28 -83 -50 -85 -50 -4 0 -32 -17 -141 -87 -28 -18 -54
-33 -57 -33 -2 0 -48 -27 -101 -60 -53 -33 -97 -60 -99 -60 -1 0 -76 -45 -167
-99 -400 -242 -830 -499 -894 -536 -65 -38 -215 -100 -215 -90 0 2 -12 0 -27
-6 -53 -20 -194 -28 -298 -17 -146 16 -324 92 -439 188 -126 105 -237 269
-275 406 -9 33 -8 36 28 58 73 46 169 180 185 257 3 13 8 35 11 49 14 59 7
155 -17 230 -34 108 -126 220 -224 272 -277 149 -619 -7 -693 -316 -13 -55
-13 -164 2 -216 13 -49 67 -160 78 -160 5 0 9 -6 9 -13 0 -22 136 -134 181
-149 6 -2 13 -15 14 -28 5 -46 66 -214 105 -292 118 -232 313 -431 543 -558
67 -36 196 -90 217 -90 9 0 20 -4 25 -8 9 -8 92 -28 205 -50 73 -14 334 -6
415 12 11 2 43 9 70 16 84 18 173 52 270 102 79 40 379 221 383 230 2 5 8 8
12 8 7 0 208 119 320 190 22 13 268 163 288 175 138 81 298 181 300 187 2 4 7
8 12 8 5 0 81 44 169 97 88 54 285 174 438 266 153 93 290 178 305 188 15 10
30 19 33 19 4 0 25 12 48 28 23 15 51 32 62 39 11 7 63 38 115 69 52 31 118
72 145 90 28 17 68 43 91 56 192 110 264 159 344 238 135 132 200 249 240 430
48 216 -1 459 -130 650 -47 70 -141 166 -203 209 -37 25 -348 207 -477 279
-25 13 -49 28 -55 32 -5 4 -30 19 -55 32 -25 14 -74 43 -110 63 -36 21 -80 46
-98 56 l-33 17 86 51 c48 28 91 51 96 51 5 0 9 5 9 10 0 6 4 10 9 10 6 0 60
29 122 65 61 36 114 65 117 65 3 0 13 6 21 14 9 8 39 26 66 41 28 14 73 40
100 56 28 16 61 35 75 42 14 6 30 15 35 19 6 5 38 26 72 48 183 120 328 342
362 555 8 53 7 239 -1 290 -35 200 -155 397 -318 523 -40 30 -221 142 -231
142 -5 0 -9 5 -9 10 0 6 -4 10 -9 10 -5 0 -87 47 -181 105 -95 58 -176 105
-180 105 -5 0 -10 3 -12 8 -4 9 -107 72 -119 72 -5 0 -9 5 -9 10 0 6 -5 10
-10 10 -6 0 -23 9 -38 19 -37 26 -492 301 -498 301 -3 0 -10 5 -17 10 -20 18
-289 180 -298 180 -4 0 -9 3 -11 8 -1 4 -66 45 -143 91 -77 46 -158 96 -180
110 -22 14 -42 26 -45 26 -3 0 -30 16 -60 36 -30 19 -191 118 -358 219 -166
102 -315 193 -330 202 -15 10 -34 21 -42 25 -8 4 -45 26 -81 49 -152 97 -341
170 -509 197 -83 13 -332 21 -343 11z m191 -2735 c124 -72 109 -64 267 -154
77 -44 142 -83 143 -87 2 -5 9 -8 16 -8 8 0 24 -8 37 -19 13 -10 27 -19 32
-20 4 0 17 -7 30 -15 23 -14 464 -268 527 -304 19 -10 98 -56 174 -101 76 -44
140 -81 142 -81 1 0 48 -27 103 -60 56 -33 106 -60 111 -60 6 0 10 -4 10 -8 0
-4 12 -13 28 -20 32 -14 133 -72 153 -88 8 -6 22 -14 32 -17 27 -10 17 -26
-33 -54 -67 -38 -749 -431 -952 -550 -97 -57 -180 -103 -184 -103 -4 0 -15 -6
-23 -14 -9 -8 -38 -26 -66 -40 -27 -15 -57 -31 -65 -36 -21 -13 -216 -127
-265 -155 -145 -81 -311 -178 -320 -186 -35 -34 -35 -41 -35 1127 l0 1136 23
-14 c12 -9 64 -39 115 -69z"/>
</g>
</svg>
